<?xml version="1.0" encoding="UTF-8"?>
<svg width="112px" height="99px" viewBox="0 0 112 99" version="1.1" xmlns="http://www.w3.org/2000/svg" xmlns:xlink="http://www.w3.org/1999/xlink">
    <!-- Generator: Sketch 51.2 (57519) - http://www.bohemiancoding.com/sketch -->
    <title>Logo</title>
    <desc>Created with Sketch.</desc>
    <defs>
        <path d="M0,8.74342194 C0,3.91456334 3.90596835,0 8.70947042,0 L102.876305,0 C107.686413,0 111.585775,3.90375306 111.585775,8.74342194 L111.585775,89.2957938 C111.585775,94.1246523 107.679807,98.0392157 102.876305,98.0392157 L8.70947042,98.0392157 C3.89936274,98.0392157 0,94.1354625 0,89.2957938 L0,8.74342194 Z" id="path-1"></path>
        <linearGradient x1="47.952%" y1="97.595%" x2="47.952%" y2="0%" id="linearGradient-3">
            <stop stop-color="#FFB300" offset="0%"></stop>
            <stop stop-color="#DD3939" offset="61.372%"></stop>
            <stop stop-color="#FF1BB4" offset="100%"></stop>
        </linearGradient>
        <path d="M0,8.74342194 C0,3.91456334 3.90596835,0 8.70947042,0 L102.876305,0 C107.686413,0 111.585775,3.90375306 111.585775,8.74342194 L111.585775,89.2957938 C111.585775,94.1246523 107.679807,98.0392157 102.876305,98.0392157 L8.70947042,98.0392157 C3.89936274,98.0392157 0,94.1354625 0,89.2957938 L0,8.74342194 Z" id="path-4"></path>
    </defs>
    <g id="Page-1" stroke="none" stroke-width="1" fill="none" fill-rule="evenodd">
        <g id="Color-Hyper" transform="translate(-294.000000, -150.000000)">
            <g id="Logo" transform="translate(294.000000, 150.000000)">
                <g id="Group">
                    <g id="Clipped">
                        <mask id="mask-2" fill="white">
                            <use xlink:href="#path-1"></use>
                        </mask>
                        <g id="a"></g>
                        <g id="a-link" mask="url(#mask-2)" fill="#000000" stroke="url(#linearGradient-3)" stroke-width="10.4575163">
                            <path d="M0,8.74342194 C0,3.91456334 3.90596835,0 8.70947042,0 L102.876305,0 C107.686413,0 111.585775,3.90375306 111.585775,8.74342194 L111.585775,89.2957938 C111.585775,94.1246523 107.679807,98.0392157 102.876305,98.0392157 L8.70947042,98.0392157 C3.89936274,98.0392157 0,94.1354625 0,89.2957938 L0,8.74342194 Z" id="a"></path>
                        </g>
                    </g>
                    <rect id="Rectangle-path" fill="#FFFFFF" x="33.1915376" y="36.5791317" width="16.7762239" height="3.28081232"></rect>
                    <polygon id="Shape" fill="#FFFFFF" points="28.0760272 28.0777311 21.183862 24.4170168 26.182556 11.9712885 11.4131326 25.3378852 17.9025428 29.7461485 13.3048602 41.4460784"></polygon>
                </g>
                <g id="Group">
                    <g id="Clipped">
                        <mask id="mask-5" fill="white">
                            <use xlink:href="#path-4"></use>
                        </mask>
                        <g id="b"></g>
                    </g>
                    <rect id="Rectangle-path" fill="#FFFFFF" x="33.1915376" y="36.5791317" width="16.7762239" height="3.28081232"></rect>
                    <polygon id="Shape" fill="#FFFFFF" points="28.0760272 28.0777311 21.183862 24.4170168 26.182556 11.9712885 11.4131326 25.3378852 17.9025428 29.7461485 13.3048602 41.4460784"></polygon>
                </g>
            </g>
        </g>
    </g>
</svg>